<?xml version="1.0" ?><svg id="Layer_1" style="enable-background:new 0 0 52 52;" version="1.1" viewBox="0 0 52 52" xml:space="preserve" xmlns="http://www.w3.org/2000/svg" xmlns:xlink="http://www.w3.org/1999/xlink"><style type="text/css">
	.st0{fill:#231F20;}
</style><g><g><path class="st0" d="M18.8260422,13.1989517c-0.0133114-3.9051342-5.0996857-5.8105335-7.1477213-2.1086397    c-0.7942505,1.4356356-0.535121,3.2049713,0.7528467,4.2300568c0.8272429,0.6583967,2.0614529,0.8273726,2.8363094,1.5105982    c0.5034103,0.4438801,1.2982407,1.6678391,0.8410397,2.4609814c-0.4579277,0.7944031-3.3790464,0.5175629-2.8759041-0.5355835    c0.6211281-1.3001099-1.3182201-2.4429722-1.9428091-1.1356182c-1.5993252,3.3476105,4.197135,6.6287689,6.3888636,3.6184349    c0.9449463-1.2978802,1.0452099-3.6946125,0.1979427-5.0756168c-0.4968815-0.8098907-1.2955418-1.1835003-2.1116924-1.5942659    c-0.5201521-0.2617912-1.366168-0.4781723-1.7549553-0.8898211c-1.6530132-1.7502165,2.556242-3.3662663,2.5660801-0.480526    C16.5809765,14.6464891,18.830986,14.6493139,18.8260422,13.1989517L18.8260422,13.1989517z"/></g><g><path class="st0" d="M14.0713425,21.8765926c0,0.2222214,0,0.4444447,0,0.666666c0,1.4477673,2.25,1.4501667,2.25,0    c0-0.2222214,0-0.4444447,0-0.666666C16.3213425,20.4288254,14.0713425,20.4264259,14.0713425,21.8765926L14.0713425,21.8765926z"/></g><g><path class="st0" d="M13.9046755,8.1265926c0,0.5555553,0,1.1111107,0,1.666666c0,1.4477682,2.250001,1.4501657,2.250001,0    c0-0.5555553,0-1.1111107,0-1.666666C16.1546764,6.6788249,13.9046755,6.6764269,13.9046755,8.1265926L13.9046755,8.1265926z"/></g><g><path class="st0" d="M25.582346,9.93608c3.035038,5.661274,1.2079487,13.0877523-4.4348812,16.1753769    c-2.6744366,1.4633884-5.8192987,1.8435974-8.8099394,1.116745c-2.8883162-0.7019844-4.9274106-2.8222198-6.6922736-5.2501717    C2.60147,17.7906513,2.6570151,10.5735321,6.4496622,6.9670582c5.1109228-4.8600378,19.5757294-5.2632418,19.8488274,4.3201532    c0.041172,1.4448175,2.2913418,1.4507723,2.25,0C28.2971554,2.467525,17.1864548-0.6917685,10.0093555,2.1050589    C2.3741281,5.0804133-1.0768927,13.2704926,2.24757,20.9489422c3.2575698,7.5239487,11.7606554,11.2433147,19.2853355,7.6874428    c7.4449501-3.5181942,9.7792263-12.7720566,5.9922504-19.8359222C26.840744,7.5238256,24.8976345,8.658885,25.582346,9.93608    L25.582346,9.93608z"/></g><g><path class="st0" d="M48.4680748,33.9602852c0.0175323,2.7160797,0.166893,5.4684525,0.0528145,8.1815414    c-0.1334419,3.1734619-0.6159744,5.0060997-3.6669464,6.2520523c-5.7003021,2.3278885-6.3983727-4.8724937-6.5811081-7.5637474    c-0.1936493-2.8520699-0.4245644-6.8649788,0.7688141-9.494976c1.2525368-2.7603722,5.8661842-3.0062027,7.9655228-1.3091106    c1.5337219,1.2398548,1.6541443,2.9986401,1.597065,4.7695141c-0.0466805,1.4482727,2.203373,1.4466438,2.25,0    c0.0747719-2.3197517,0.2266426-4.4666462-1.6234932-6.020752c-1.69944-1.4275246-4.226017-2.2756195-6.4311447-2.0879707    c-7.4390945,0.6330471-7.2169685,9.3247375-6.7122765,14.8998985c0.5266991,5.8182869,3.3639221,11.0563889,10.0463257,8.7332764    c6.5772858-2.2865715,4.6191559-10.9799004,4.5844269-16.359726    C50.7087326,32.5129814,48.4587097,32.5097771,48.4680748,33.9602852L48.4680748,33.9602852z"/></g><g><path class="st0" d="M37.2796745,38.0015907c3.8333359,0,7.6666679,0,11.5,0c1.4477692,0,1.4501686-2.25,0-2.25    c-3.8333321,0-7.6666641,0-11.5,0C35.8319092,35.7515907,35.8295097,38.0015907,37.2796745,38.0015907L37.2796745,38.0015907z"/></g><g><path class="st0" d="M13.8250999,29.5438023c-0.0105047,3.4611492,0.408411,7.0090466,3.600914,9.0464497    c2.6830463,1.7122803,7.5126057,1.9534302,10.3588428,0.699585c3.1923046-1.4062996,2.8765678-4.4477158,4.0799141-7.2373428    c1.4073849-3.2626362,4.2421284-6.4926548,8.1884212-5.8176651c3.7404366,0.6397781,2.7588348,6.961216,2.8063545,9.7265816    c0.0248489,1.4462662,2.274929,1.4508133,2.25,0c-0.1202316-6.9969082,0.6208-13.7146511-8.4792442-11.6578026    c-3.0814056,0.6964779-5.1071415,3.3880005-6.5301247,6.0968628c-1.3953018,2.6561661-1.9365578,6.070694-5.3113899,7.2321167    c-0.6946449,0.2390556-2.2335548,0.053688-2.981741-0.0576363c-4.5127697-0.6714745-5.7442245-3.9859734-5.7319469-8.0311489    C16.0794945,28.0958595,13.8295012,28.0938396,13.8250999,29.5438023L13.8250999,29.5438023z"/></g></g></svg>