<?xml version="1.0" encoding="utf-8"?>
<!-- Generator: Adobe Illustrator 22.0.1, SVG Export Plug-In . SVG Version: 6.00 Build 0)  -->
<svg version="1.1" id="Layer_1" xmlns="http://www.w3.org/2000/svg" xmlns:xlink="http://www.w3.org/1999/xlink" x="0px" y="0px"
	 viewBox="0 0 105.8 93.2" style="enable-background:new 0 0 105.8 93.2;" xml:space="preserve">
<style type="text/css">
	.st0{fill:#00A3E0;stroke:#FFFFFF;stroke-width:0.5;stroke-miterlimit:10;}
</style>
<path class="st0" d="M98.6,93.2H7.4c-4,0-5.2-0.9,1.8-3.2C19.3,86.4,33,79.5,48.3,67.5c3.6-2.8,5.8-3.6,10.9-2.5
	c16.4,4.5,31.6,14,40.9,20.8c4.1,3,4.9,4.2,4.2,5.7c-0.4,0.9-1.8,1.5-5.9,1.5"/>
<path class="st0" d="M53.6,0.1c1.2-0.5,2.6,0.8,4,3.3c0.7,1.2,45.2,78.3,46.7,80.8c3.2,5.4,1,3.7-3.1,0.4c-8.2-7-21.9-16-40.2-23.3
	c-4.8-2-5.9-3.7-7.2-7.8C49.2,36,50.2,16.8,51.5,5.4C51.9,2.4,52.4,0.7,53.6,0.1"/>
<path class="st0" d="M1.5,84.6C14.2,62.7,46.7,6.5,48.2,3.8c4.1-7,2.1-0.2,1.6,2.7c-1.9,10.6-3,27.3-0.3,46.6c0.7,5,0,6.9-3.3,10.7
	C33.3,76.5,16,85.2,5.7,89.7c-3,1.3-4.6,1.2-5.2,0.4C-0.3,89.3-0.2,87.7,1.5,84.6"/>
</svg>
